# xmcd
# 
# Track frame offsets:
#     150
#     15450
#     31107
#     50210
#     67402
#     82516
#     98096
#     119047
#     137044
#     154746
#     176237
#     194794
#     211577
#     231041
#     252992
#     270037
# 
# Disc length: 4257
# 
# Revision: 4
# Processed by: cddbd v1.5.2PL0 Copyright (c) Steve Scherf et al.
# Submitted via: fre:ac v1.0.17
# 
DISCID=da109f10
DTITLE=Joe Cocker - Hard Knocks
DYEAR=2010
DGENRE=Rock, Blues Rock
TTITLE0=Hard Knocks
TTITLE1=Get On
TTITLE2=Unforgiven
TTITLE3=The Fall
TTITLE4=So It Goes
TTITLE5=Runaway Train
TTITLE6=Stay The Same
TTITLE7=Thankful
TTITLE8=So
TTITLE9=I Hope
TTITLE10=Hard Knocks (live)
TTITLE11=Get On (live)
TTITLE12=Unforgiven (live)
TTITLE13=Thankful (live)
TTITLE14=You Are So Beautiful (live)
TTITLE15=With A Little Help From My Friends (live)
EXTD=CD/DVD 2010 -  Limited Premium Edition\nCOLumbia/SevenOne [Sony] - 8 86978 22072 1\n[Bonus Tracks - Live]
EXTT0=
EXTT1=
EXTT2=
EXTT3=
EXTT4=
EXTT5=
EXTT6=
EXTT7=
EXTT8=
EXTT9=
EXTT10=[Bonus Track]
EXTT11=[Bonus Track]
EXTT12=[Bonus Track]
EXTT13=[Bonus Track]
EXTT14=[Bonus Track]
EXTT15=[Bonus Track]
PLAYORDER=
